<svg width="95" height="94" viewBox="0 0 95 94" fill="none" xmlns="http://www.w3.org/2000/svg">
<g filter="url(#filter0_b_2001_10)">
<rect width="95" height="94" rx="20" fill="#1B111D"/>
</g>
<path d="M12.4081 43L17.3521 31.8H20.4721L25.4321 43H22.1361L18.2641 33.352H19.5121L15.6401 43H12.4081ZM15.1121 40.824L15.9281 38.488H21.4001L22.2161 40.824H15.1121ZM27.289 43.192C27.0757 43.192 26.8463 43.176 26.601 43.144C26.3663 43.112 26.1157 43.064 25.849 43L26.025 40.408C26.1743 40.44 26.3183 40.456 26.457 40.456C26.8943 40.456 27.225 40.2853 27.449 39.944C27.673 39.592 27.8277 39.1013 27.913 38.472C28.009 37.8427 28.0677 37.1067 28.089 36.264L28.249 31.8H37.273V43H34.153V33.608L34.841 34.312H30.313L30.953 33.576L30.873 36.136C30.841 37.224 30.7663 38.2053 30.649 39.08C30.5317 39.944 30.345 40.6853 30.089 41.304C29.833 41.912 29.4757 42.3813 29.017 42.712C28.569 43.032 27.993 43.192 27.289 43.192ZM45.3808 35.368C46.7461 35.368 47.8021 35.672 48.5488 36.28C49.3061 36.888 49.6848 37.8 49.6848 39.016C49.6848 40.328 49.2634 41.32 48.4208 41.992C47.5781 42.664 46.4261 43 44.9648 43H39.6688V31.8H42.7888V35.368H45.3808ZM44.7568 40.728C45.2901 40.728 45.7114 40.584 46.0208 40.296C46.3408 40.008 46.5008 39.6027 46.5008 39.08C46.5008 38.5467 46.3408 38.1733 46.0208 37.96C45.7114 37.736 45.2901 37.624 44.7568 37.624H42.7888V40.728H44.7568ZM52.5394 43V33.608L53.2434 34.312H49.0994V31.8H59.0834V34.312H54.9554L55.6594 33.608V43H52.5394ZM63.4557 36.136H68.6558V38.504H63.4557V36.136ZM63.6798 40.552H69.5358V43H60.5438V31.8H69.3278V34.248H63.6798V40.552ZM71.3406 43V31.8H76.4606C77.4846 31.8 78.3646 31.9653 79.1006 32.296C79.8473 32.6267 80.4233 33.1067 80.8286 33.736C81.234 34.3547 81.4366 35.0907 81.4366 35.944C81.4366 36.7867 81.234 37.5173 80.8286 38.136C80.4233 38.7547 79.8473 39.2347 79.1006 39.576C78.3646 39.9067 77.4846 40.072 76.4606 40.072H73.1006L74.5086 38.696V43H71.3406ZM74.5086 39.032L73.1006 37.576H76.2686C76.93 37.576 77.4206 37.432 77.7406 37.144C78.0713 36.856 78.2366 36.456 78.2366 35.944C78.2366 35.4213 78.0713 35.016 77.7406 34.728C77.4206 34.44 76.93 34.296 76.2686 34.296H73.1006L74.5086 32.84V39.032Z" fill="white"/>
<path d="M16.9792 56.136H22.1792V58.504H16.9792V56.136ZM17.2032 60.552H23.0592V63H14.0672V51.8H22.8512V54.248H17.2032V60.552ZM32.3521 51.8H35.5201V63H32.3521V51.8ZM28.0321 63H24.8641V51.8H28.0321V63ZM32.5761 58.632H27.8081V56.008H32.5761V58.632ZM40.8386 56.136H46.0386V58.504H40.8386V56.136ZM41.0626 60.552H46.9186V63H37.9266V51.8H46.7106V54.248H41.0626V60.552ZM48.7234 63V51.8H53.8434C54.8674 51.8 55.7474 51.9653 56.4834 52.296C57.2301 52.6267 57.8061 53.1067 58.2114 53.736C58.6168 54.3547 58.8194 55.0907 58.8194 55.944C58.8194 56.7867 58.6168 57.5173 58.2114 58.136C57.8061 58.7547 57.2301 59.2347 56.4834 59.576C55.7474 59.9067 54.8674 60.072 53.8434 60.072H50.4834L51.8914 58.696V63H48.7234ZM51.8914 59.032L50.4834 57.576H53.6514C54.3128 57.576 54.8034 57.432 55.1234 57.144C55.4541 56.856 55.6194 56.456 55.6194 55.944C55.6194 55.4213 55.4541 55.016 55.1234 54.728C54.8034 54.44 54.3128 54.296 53.6514 54.296H50.4834L51.8914 52.84V59.032ZM60.2547 63V51.8H68.4627L68.4467 54.312H62.6707L63.3747 53.608V63H60.2547ZM74.4149 63.224C73.5189 63.224 72.6923 63.08 71.9349 62.792C71.1776 62.504 70.5163 62.0987 69.9509 61.576C69.3963 61.0427 68.9643 60.424 68.6549 59.72C68.3456 59.016 68.1909 58.2427 68.1909 57.4C68.1909 56.5573 68.3456 55.784 68.6549 55.08C68.9643 54.376 69.3963 53.7627 69.9509 53.24C70.5163 52.7067 71.1776 52.296 71.9349 52.008C72.6923 51.72 73.5189 51.576 74.4149 51.576C75.3216 51.576 76.1483 51.72 76.8949 52.008C77.6523 52.296 78.3083 52.7067 78.8629 53.24C79.4176 53.7627 79.8496 54.376 80.1589 55.08C80.4789 55.784 80.6389 56.5573 80.6389 57.4C80.6389 58.2427 80.4789 59.0213 80.1589 59.736C79.8496 60.44 79.4176 61.0533 78.8629 61.576C78.3083 62.0987 77.6523 62.504 76.8949 62.792C76.1483 63.08 75.3216 63.224 74.4149 63.224ZM74.4149 60.6C74.8416 60.6 75.2363 60.5253 75.5989 60.376C75.9723 60.2267 76.2923 60.0133 76.5589 59.736C76.8363 59.448 77.0496 59.1067 77.1989 58.712C77.3589 58.3173 77.4389 57.88 77.4389 57.4C77.4389 56.9093 77.3589 56.472 77.1989 56.088C77.0496 55.6933 76.8363 55.3573 76.5589 55.08C76.2923 54.792 75.9723 54.5733 75.5989 54.424C75.2363 54.2747 74.8416 54.2 74.4149 54.2C73.9883 54.2 73.5883 54.2747 73.2149 54.424C72.8523 54.5733 72.5323 54.792 72.2549 55.08C71.9883 55.3573 71.7749 55.6933 71.6149 56.088C71.4656 56.472 71.3909 56.9093 71.3909 57.4C71.3909 57.88 71.4656 58.3173 71.6149 58.712C71.7749 59.1067 71.9883 59.448 72.2549 59.736C72.5323 60.0133 72.8523 60.2267 73.2149 60.376C73.5883 60.5253 73.9883 60.6 74.4149 60.6Z" fill="#FEAF00"/>
<defs>
<filter id="filter0_b_2001_10" x="-8" y="-8" width="111" height="110" filterUnits="userSpaceOnUse" color-interpolation-filters="sRGB">
<feFlood flood-opacity="0" result="BackgroundImageFix"/>
<feGaussianBlur in="BackgroundImageFix" stdDeviation="4"/>
<feComposite in2="SourceAlpha" operator="in" result="effect1_backgroundBlur_2001_10"/>
<feBlend mode="normal" in="SourceGraphic" in2="effect1_backgroundBlur_2001_10" result="shape"/>
</filter>
</defs>
</svg>
