<?xml version="1.0" standalone="no"?>
<!DOCTYPE svg PUBLIC "-//W3C//DTD SVG 20010904//EN"
 "http://www.w3.org/TR/2001/REC-SVG-20010904/DTD/svg10.dtd">
<svg version="1.0" xmlns="http://www.w3.org/2000/svg"
 width="760.000000pt" height="760.000000pt" viewBox="0 0 760.000000 760.000000"
 preserveAspectRatio="xMidYMid meet">
<metadata>
Created by potrace 1.14, written by Peter Selinger 2001-2017
</metadata>
<g transform="translate(0.000000,760.000000) scale(0.100000,-0.100000)"
fill="#000000" stroke="none">
<path d="M1459 7556 c-2 -2 -29 -7 -59 -9 -30 -3 -77 -11 -105 -17 -27 -7 -59
-13 -70 -14 -43 -4 -225 -70 -320 -116 -105 -50 -256 -146 -321 -202 -71 -62
-190 -183 -230 -233 -21 -27 -42 -51 -46 -53 -5 -2 -8 -10 -8 -17 0 -7 -4 -15
-8 -17 -14 -6 -88 -132 -134 -228 -52 -108 -102 -246 -114 -315 -1 -5 -3 -12
-4 -15 -4 -11 -15 -71 -27 -155 -10 -62 -11 -4687 -1 -4735 4 -19 9 -53 13
-75 3 -22 11 -58 17 -80 5 -22 11 -47 13 -55 16 -80 114 -313 157 -373 13 -18
22 -34 21 -37 -5 -15 146 -208 227 -290 106 -107 151 -144 260 -217 111 -74
337 -180 425 -198 11 -3 32 -7 47 -11 15 -3 31 -6 35 -6 5 0 15 -4 23 -8 8 -4
38 -11 65 -15 28 -4 61 -10 75 -13 14 -3 1087 -7 2385 -8 2379 -2 2404 -2
2555 30 14 3 36 7 50 10 147 31 440 164 545 248 6 5 39 31 75 59 63 49 240
224 240 237 0 4 14 21 30 39 17 18 30 36 30 41 0 5 7 15 16 23 15 12 136 221
141 243 1 6 18 49 37 96 20 47 36 92 36 100 0 8 7 35 16 60 9 25 18 59 20 75
4 34 12 82 22 140 9 53 9 4657 0 4715 -23 146 -43 230 -79 335 -24 67 -111
254 -138 294 -10 14 -33 49 -51 76 -230 343 -641 607 -1045 671 -22 4 -51 9
-65 12 -28 7 -4744 14 -4751 8z"/>
</g>
</svg>
